<svg class="icon-logo"  viewBox="0 0 600 600" version="1.1" xmlns="http://www.w3.org/2000/svg" xmlns:xlink="http://www.w3.org/1999/xlink" height="100%">
    <defs>
        <linearGradient id="linearGradient-1" x1="100%" y1="10.5120544%" x2="50%" y2="89.4879456%">
            <stop stop-color="#000000" offset="0%">
            </stop><stop stop-color="#FFFFFF" offset="100%">
            </stop>
        </linearGradient>
        <linearGradient id="linearGradient-2" x1="64.0437835%" y1="46.3276743%" x2="37.373316%" y2="100%">
            <stop stop-color="#EEEEEE" stop-opacity="0" offset="0%"></stop>
            <stop stop-color="#FFFFFF" offset="100%"></stop>
        </linearGradient>
    </defs>
    <g id="#000000ff" stroke="none" stroke-width="1" fill="none" fill-rule="evenodd">
        <g id="Artboard" transform="translate(-400.000000, -178.000000)">
            <g id="Group" transform="translate(400.000000, 178.000000)">
                <path d=" M 266.80 48.52 C 291.42 48.49 316.04 48.48 340.65 48.52 C 328.33 69.83 316.22 91.28 303.62 112.42 C 291.38 91.10 278.97 69.88 266.80 48.52 Z" class="text-logo" style="fill: currentcolor;"></path>
                <path d=" M 247.19 82.78 C 266.06 115.24 284.79 147.80 303.55 180.33 C 304.24 179.39 304.92 178.44 305.53 177.44 C 321.96 148.95 338.42 120.47 354.87 91.98 C 356.67 88.91 358.30 85.74 360.38 82.85 C 367.80 96.04 375.53 109.05 383.07 122.16 C 356.67 168.01 330.19 213.81 303.73 259.63 C 277.23 213.83 250.78 168.00 224.36 122.16 C 231.98 109.04 239.59 95.91 247.19 82.78 Z" class="text-logo" style="fill: currentcolor;"></path>
                <path d=" M 181.85 195.74 C 189.31 182.47 197.02 169.33 204.71 156.19 C 237.71 213.34 270.73 270.49 303.70 327.66 C 336.70 270.48 369.78 213.35 402.69 156.13 C 410.42 169.13 417.77 182.36 425.58 195.32 C 416.64 211.66 407.00 227.62 397.78 243.82 C 369.56 292.72 341.33 341.61 313.10 390.50 C 306.82 390.49 300.54 390.53 294.27 390.48 C 256.86 325.53 219.37 260.62 181.85 195.74 Z" class="text-logo" style="fill: currentcolor;"></path>
                <path d=" M 139.27 269.00 C 146.88 255.90 154.46 242.78 162.06 229.68 C 173.12 248.12 183.59 266.91 194.45 285.46 C 214.62 320.48 234.88 355.45 255.04 390.48 C 239.79 390.48 224.54 390.57 209.29 390.44 C 186.09 349.88 162.59 309.49 139.27 269.00 Z" class="text-logo" style="fill: currentcolor;"></path>
                <path d=" M 445.30 229.54 C 452.90 242.70 460.53 255.84 468.15 268.99 C 446.70 306.24 425.16 343.45 403.68 380.69 C 401.63 383.88 400.19 387.51 397.76 390.43 C 382.64 390.51 367.50 390.64 352.38 390.36 C 383.44 336.80 414.29 283.13 445.30 229.54 Z" class="text-logo" style="fill: currentcolor;"></path>
                <path d=" M 119.53 303.05 C 136.59 332.08 153.30 361.33 170.12 390.51 C 154.85 390.42 139.58 390.66 124.31 390.38 C 115.31 374.26 105.82 358.41 96.74 342.33 C 104.40 329.28 111.93 316.15 119.53 303.05 Z" class="text-logo" style="fill: currentcolor;"></path>
                <path d=" M 437.35 390.48 C 454.09 361.27 470.95 332.14 487.83 303.02 C 495.52 316.08 503.00 329.27 510.70 342.34 C 501.44 358.44 492.24 374.58 482.79 390.57 C 467.64 390.40 452.50 390.57 437.35 390.48 Z" class="text-logo" style="fill: currentcolor;"></path>
                <path d=" M 78.29 477.28 C 84.10 471.28 92.83 469.22 100.94 469.46 C 108.20 469.39 115.76 471.70 120.96 476.96 C 126.33 482.27 128.33 490.22 127.63 497.59 C 121.94 497.42 116.25 497.54 110.57 497.50 C 110.91 493.48 109.88 488.83 106.05 486.76 C 101.36 484.40 94.63 484.96 91.31 489.40 C 89.27 492.16 89.01 495.73 88.98 499.05 C 89.00 506.36 89.01 513.68 88.98 521.00 C 89.02 524.40 89.04 528.05 90.93 531.04 C 95.09 537.55 106.60 537.00 109.95 529.97 C 111.10 527.75 111.14 525.19 111.37 522.76 C 107.92 522.74 104.46 522.74 101.01 522.75 C 100.99 518.17 101.00 513.58 101.00 509.00 C 109.92 509.01 118.84 508.98 127.76 509.02 C 127.24 518.43 129.35 528.45 125.14 537.29 C 121.73 544.83 114.11 549.84 106.04 551.03 C 97.05 552.45 87.05 550.94 79.95 544.89 C 74.19 540.02 71.38 532.40 71.28 524.98 C 71.21 515.62 71.25 506.27 71.26 496.92 C 71.27 489.85 73.14 482.38 78.29 477.28 Z" class="text-logo" style="fill: currentcolor;"></path>
                <path d=" M 140.50 470.50 C 150.18 470.53 159.86 470.42 169.54 470.55 C 176.93 470.62 184.68 472.61 190.08 477.91 C 201.67 488.54 199.48 510.01 185.90 518.05 C 190.01 528.79 194.19 539.50 198.30 550.24 C 191.79 550.27 185.28 550.23 178.76 550.26 C 175.32 540.93 171.83 531.62 168.46 522.27 C 165.05 522.24 161.65 522.24 158.25 522.25 C 158.24 531.58 158.26 540.91 158.25 550.24 C 152.34 550.26 146.43 550.24 140.52 550.26 C 140.47 523.67 140.51 497.09 140.50 470.50 M 158.25 486.26 C 158.27 493.01 158.21 499.76 158.29 506.52 C 163.53 506.14 169.14 507.46 174.09 505.23 C 180.96 502.25 181.15 490.88 174.39 487.67 C 169.37 485.21 163.61 486.59 158.25 486.26 Z" class="text-logo" style="fill: currentcolor;"></path>
                <path d=" M 228.22 470.32 C 237.82 468.48 248.70 469.14 256.70 475.31 C 263.06 480.10 266.31 488.15 266.26 495.98 C 266.25 505.65 266.25 515.32 266.26 524.99 C 266.27 532.57 263.25 540.39 257.23 545.21 C 249.96 551.11 239.94 552.43 230.92 551.00 C 222.87 549.81 215.08 545.10 211.44 537.65 C 207.05 529.45 208.88 519.88 208.50 510.99 C 208.94 501.47 206.92 491.26 211.51 482.44 C 214.70 475.96 221.28 471.75 228.22 470.32 M 232.28 486.38 C 228.53 487.99 226.36 492.03 226.29 496.01 C 226.16 504.69 226.32 513.38 226.23 522.06 C 226.16 525.12 226.37 528.36 228.10 531.00 C 232.32 537.43 243.76 537.08 247.17 530.01 C 249.27 525.66 248.29 520.69 248.50 516.05 C 248.31 508.69 248.89 501.30 248.20 493.98 C 247.28 486.66 238.47 483.55 232.28 486.38 Z" class="text-logo" style="fill: currentcolor;"></path>
                <path d=" M 272.99 470.48 C 279.28 470.50 285.56 470.53 291.85 470.46 C 296.09 488.17 299.92 505.99 304.16 523.71 C 308.37 506.00 312.30 488.23 316.38 470.49 C 322.41 470.50 328.44 470.51 334.48 470.48 C 327.42 497.08 320.35 523.67 313.22 550.25 C 306.85 550.26 300.49 550.24 294.12 550.26 C 287.07 523.67 280.02 497.08 272.99 470.48 Z" class="text-logo" style="fill: currentcolor;"></path>
                <path d=" M 383.99 475.08 C 391.25 469.28 401.28 468.44 410.11 470.29 C 417.18 471.77 423.87 476.30 426.79 483.07 C 428.63 486.94 428.89 491.28 429.08 495.49 C 423.18 495.53 417.28 495.44 411.39 495.56 C 411.29 492.53 411.40 489.05 408.99 486.82 C 405.04 483.19 397.74 483.12 394.26 487.44 C 391.65 490.86 393.29 496.20 397.15 497.93 C 406.17 502.19 416.93 503.40 424.43 510.51 C 430.76 516.36 431.66 525.98 429.62 533.94 C 427.37 542.32 419.98 548.63 411.64 550.49 C 401.86 552.69 390.69 551.62 382.51 545.44 C 376.01 540.67 373.32 532.32 373.97 524.50 C 379.79 524.49 385.61 524.50 391.44 524.50 C 391.41 528.19 391.40 532.79 395.00 534.94 C 399.86 537.67 406.62 537.53 410.99 533.90 C 414.75 530.33 413.43 523.50 408.93 521.16 C 400.26 517.07 390.10 515.74 382.66 509.27 C 372.58 500.68 373.66 483.04 383.99 475.08 Z" class="text-logo" style="fill: currentcolor;"></path>
                <path d=" M 492.32 470.47 C 501.56 468.54 511.93 468.96 520.01 474.31 C 527.26 478.90 531.05 487.60 531.00 496.01 C 531.00 505.69 531.01 515.39 531.00 525.08 C 531.00 532.82 527.79 540.76 521.55 545.55 C 514.96 550.68 506.20 552.11 498.06 551.33 C 491.10 550.64 484.08 547.89 479.44 542.51 C 475.27 537.71 473.17 531.34 473.24 525.03 C 473.25 515.35 473.26 505.67 473.24 496.00 C 473.17 489.35 475.13 482.47 479.68 477.49 C 483.04 473.91 487.56 471.56 492.32 470.47 M 497.23 486.28 C 493.40 487.78 491.10 491.86 491.05 495.88 C 490.90 504.58 491.07 513.29 490.98 522.00 C 490.92 525.29 491.07 528.90 493.24 531.59 C 496.66 535.92 503.33 536.61 508.05 534.11 C 511.65 532.17 513.28 527.89 513.24 523.97 C 513.30 515.63 513.20 507.29 513.28 498.96 C 513.28 495.39 513.03 491.36 510.36 488.68 C 507.16 485.03 501.54 484.76 497.23 486.28 Z" class="text-logo" style="fill: currentcolor;"></path>
                <path d=" M 584.02 470.49 C 589.34 470.50 594.67 470.50 600.00 470.50 L 600.00 550.24 C 595.12 550.25 590.25 550.33 585.38 550.12 C 577.19 535.11 568.70 520.26 560.28 505.37 C 560.21 520.33 560.28 535.29 560.24 550.24 C 554.91 550.25 549.58 550.26 544.25 550.24 C 544.28 523.65 544.20 497.06 544.29 470.48 C 549.30 470.50 554.30 470.50 559.31 470.49 C 567.50 485.08 575.70 499.67 583.88 514.27 C 584.16 499.68 583.90 485.08 584.02 470.49 Z" class="text-logo" style="fill: currentcolor;"></path>
                <path d=" M 0.00 549.59 C 7.65 523.23 15.23 496.85 22.90 470.50 C 29.23 470.49 35.57 470.50 41.91 470.49 C 49.56 497.07 57.24 523.64 64.83 550.24 C 58.77 550.28 52.71 550.18 46.66 550.33 C 45.41 546.17 44.36 541.96 43.29 537.75 C 35.65 537.77 28.02 537.67 20.38 537.82 C 19.40 541.99 18.37 546.14 17.24 550.28 C 11.49 550.23 5.75 550.25 0.00 550.25 L 0.00 549.59 M 31.72 492.74 C 29.27 502.68 26.84 512.62 24.23 522.51 C 29.30 522.48 34.37 522.51 39.44 522.49 C 36.81 512.59 34.49 502.61 31.72 492.74 Z" class="text-logo" style="fill: currentcolor;"></path>
                <path d=" M 344.75 470.50 C 350.67 470.49 356.58 470.50 362.49 470.50 C 362.50 497.08 362.53 523.67 362.48 550.26 C 356.57 550.24 350.66 550.26 344.76 550.24 C 344.74 523.66 344.75 497.08 344.75 470.50 Z" class="text-logo" style="fill: currentcolor;"></path><path d=" M 442.23 470.53 C 448.15 470.47 454.08 470.50 460.00 470.50 C 460.00 497.08 460.01 523.67 459.99 550.25 C 454.08 550.25 448.16 550.26 442.25 550.24 C 442.24 523.67 442.27 497.10 442.23 470.53 Z"  style="fill: currentcolor;"></path>
            </g>    
        </g>
    </g>
</svg>
